<?xml version="1.0" standalone="no"?>
<!DOCTYPE svg PUBLIC "-//W3C//DTD SVG 20010904//EN"
 "http://www.w3.org/TR/2001/REC-SVG-20010904/DTD/svg10.dtd">
<svg version="1.0" xmlns="http://www.w3.org/2000/svg"
 width="223.000000pt" height="132.000000pt" viewBox="0 0 223.000000 132.000000"
 preserveAspectRatio="xMidYMid meet">
<metadata>
Created by potrace 1.15, written by Peter Selinger 2001-2017
</metadata>
<g transform="translate(0.000000,132.000000) scale(0.100000,-0.100000)"
fill="#000000" stroke="none">
<path d="M0 660 l0 -660 1115 0 1115 0 0 660 0 660 -1115 0 -1115 0 0 -660z
m365 624 c18 -14 20 -30 25 -189 l5 -175 85 60 c46 34 87 65 90 70 10 17 197
145 247 171 26 13 51 28 54 32 3 4 43 17 89 28 76 19 109 20 429 17 305 -3
352 -6 395 -22 27 -10 54 -22 60 -27 17 -14 127 -79 135 -79 17 0 123 -122
160 -185 61 -103 73 -150 79 -304 3 -107 0 -148 -13 -200 -21 -77 -63 -165
-99 -208 -14 -17 -26 -36 -26 -41 0 -11 -100 -102 -111 -102 -4 0 -32 -15 -64
-34 -31 -19 -70 -38 -86 -41 -16 -4 -29 -10 -29 -15 0 -20 -117 -30 -368 -30
-247 0 -389 10 -402 29 -3 4 -36 15 -75 25 -88 22 -278 115 -325 157 -38 35
-204 157 -223 165 -9 3 -12 -41 -12 -170 0 -219 12 -205 -175 -206 -74 0 -142
5 -150 10 -13 8 -15 91 -18 629 -2 555 -1 621 13 635 23 23 280 23 310 0z"/>
<path d="M1395 1264 c-16 -16 -86 -70 -155 -119 -69 -49 -126 -93 -128 -97 -5
-10 -199 -148 -209 -148 -5 0 -24 -14 -43 -32 -19 -17 -81 -65 -137 -105 -96
-69 -103 -77 -103 -108 0 -32 7 -39 98 -103 53 -38 113 -78 132 -88 19 -10 37
-22 40 -26 3 -4 41 -19 85 -35 l80 -28 309 -3 308 -3 52 25 c89 43 156 156
156 260 0 122 -79 236 -189 274 -19 7 -72 12 -118 12 -78 0 -85 2 -113 28
l-29 29 -3 148 -3 149 -30 -30z"/>
</g>
</svg>
